# xmcd
#
# Track frame offsets:
#	150
#	10775
#	26108
#	31793
#	53265
#	73003
#	89823
#	96553
#	111358
#	123398
#	136060
#	148165
#	165390
#	176293
#	190355
#	203235
#	216070
#	228695
#	240818
#	251623
#
# Disc length: 3529 seconds
#
# Revision: 1
# Processed by: cddbd v1.5.1PL0 Copyright (c) Steve Scherf et al.
# Submitted via: audiograbber 1.82.02
#
DISCID=150dc714
DTITLE=Country Music - Country Hit Parade
DYEAR=1900
DGENRE=
TTITLE0=Tom T Hall - Clayton Delany Died
TTITLE1=George Jones - Loving Her Today
TTITLE2=Bobby Bare - 500 Miles
TTITLE3=Gary Morris - Wind Beneath My Wings
TTITLE4=Bellamy Bros - Beautiful Body
TTITLE5=T.G Sheppard - Finally
TTITLE6=Mel Tillis - Good Women Blues
TTITLE7=Lee Greenwood - Fool's Gold
TTITLE8=Mickey Gilley - A Headache Tomorrow
TTITLE9=Earl Thomas Corley - Fire And Smoke
TTITLE10=Gene Watson - Fourteen Carol Mind
TTITLE11=Atlanta - Sweet Country Music
TTITLE12=Mel McDaniel - Big Ole Brew
TTITLE13=Eddy Raven - Who Do You Know
TTITLE14=Moe Bandy - Rodeo Romeo
TTITLE15=Ronnie McDowell - Wandering Eyes
TTITLE16=David Frizzell - Lost My Baby Blues
TTITLE17=Johnny Tillitson - It Keeps Right On A Hurtin
TTITLE18=Hoyt Axton - Rosey Fingers
TTITLE19=Johnny Rodriguez - Desperado
EXTD=
EXTT0=
EXTT1=
EXTT2=
EXTT3=
EXTT4=
EXTT5=
EXTT6=
EXTT7=
EXTT8=
EXTT9=
EXTT10=
EXTT11=
EXTT12=
EXTT13=
EXTT14=
EXTT15=
EXTT16=
EXTT17=
EXTT18=
EXTT19=
PLAYORDER=
